<svg width="1000px" height="1000px" viewBox="0 0 1000 1000" version="1.1" xmlns="http://www.w3.org/2000/svg" xmlns:xlink="http://www.w3.org/1999/xlink">
    <g stroke="none" fill="none" fill-opacity="0">
        <rect x="0" y="0" width="1000" height="1000"></rect>
    </g>
    <g stroke="none" fill="none" fill-opacity="0">
        <rect x="0" y="0" width="1000" height="1000"></rect>
    </g>
    <g stroke="none" fill="none" fill-opacity="0">
        <rect x="0" y="0" width="1000" height="1000"></rect>
    </g>
    <g stroke="none" fill="none" fill-opacity="0">
        <rect x="0" y="0" width="1000" height="1000"></rect>
    </g>
    <g stroke="none" fill="none" fill-opacity="0">
        <rect x="0" y="0" width="1000" height="1000"></rect>
    </g>
    <g stroke="none" fill="none" fill-opacity="0">
        <rect x="0" y="0" width="1000" height="1000"></rect>
    </g>
    <g stroke="none" fill="none" fill-opacity="0">
        <rect x="0" y="0" width="1000" height="1000"></rect>
    </g>
    <g stroke="none" fill="none" fill-opacity="0">
        <rect x="0" y="0" width="1000" height="1000"></rect>
    </g>
    <g stroke="none" fill="none" fill-opacity="0">
        <rect x="0" y="0" width="1000" height="1000"></rect>
    </g>
    <g stroke="none" fill="none" fill-opacity="0">
        <rect x="0" y="0" width="1000" height="1000"></rect>
    </g>
    <g stroke="none" fill="none" fill-opacity="0">
        <rect x="0" y="0" width="1000" height="1000"></rect>
    </g>
    <g stroke="none" fill="none" fill-opacity="0">
        <rect x="0" y="0" width="1000" height="1000"></rect>
    </g>
    <g stroke="none" fill="none" fill-opacity="0">
        <rect x="0" y="0" width="1000" height="1000"></rect>
    </g>
    <g stroke="none" fill="none" fill-opacity="0">
        <rect x="0" y="0" width="1000" height="1000"></rect>
    </g>
    <g stroke="none" fill="none" fill-opacity="0">
        <rect x="0" y="0" width="1000" height="1000"></rect>
    </g>
    <g stroke="none" fill="none" fill-opacity="0">
        <rect x="0" y="0" width="1000" height="1000"></rect>
    </g>
    <g stroke="none" fill="none" fill-opacity="0">
        <rect x="0" y="0" width="1000" height="1000"></rect>
    </g>
    <g stroke="none" fill="none" fill-opacity="0">
        <rect x="0" y="0" width="1000" height="1000"></rect>
    </g>
    <g stroke="none" fill="none" fill-opacity="0">
        <rect x="0" y="0" width="1000" height="1000"></rect>
    </g>
    <g stroke="none" fill="none" fill-opacity="0">
        <rect x="0" y="0" width="1000" height="1000"></rect>
    </g>
    <g stroke="none" fill="none" fill-opacity="0">
        <rect x="0" y="0" width="1000" height="1000"></rect>
    </g>
    <g stroke="none" fill="none" fill-opacity="0">
        <rect x="0" y="0" width="1000" height="1000"></rect>
    </g>
    <g stroke="none" fill="none" fill-opacity="0">
        <rect x="0" y="0" width="1000" height="1000"></rect>
    </g>
    <g stroke="none" fill="none" fill-opacity="0">
        <rect x="0" y="0" width="1000" height="1000"></rect>
    </g>
    <g stroke="none" fill="none" fill-opacity="0">
        <rect x="0" y="0" width="1000" height="1000"></rect>
    </g>
    <g stroke="none" fill="none" fill-opacity="0">
        <rect x="0" y="0" width="1000" height="1000"></rect>
    </g>
    <g stroke="none" fill="none" fill-opacity="0">
        <rect x="0" y="0" width="1000" height="1000"></rect>
    </g>
    <g stroke="none" fill="none" fill-opacity="0">
        <rect x="0" y="0" width="1000" height="1000"></rect>
    </g>
    <g stroke="none" fill="none" fill-opacity="0">
        <rect x="0" y="0" width="1000" height="1000"></rect>
    </g>
    <g stroke="none" fill="none" fill-opacity="0">
        <rect x="0" y="0" width="1000" height="1000"></rect>
    </g>
    <g stroke="none" fill="none" fill-opacity="0">
        <rect x="0" y="0" width="1000" height="1000"></rect>
    </g>
    <g stroke="none" fill="none" fill-opacity="0">
        <rect x="0" y="0" width="1000" height="1000"></rect>
    </g>
    <g stroke="none" fill="none" fill-opacity="0">
        <rect x="0" y="0" width="1000" height="1000"></rect>
    </g>
    <g stroke="none" fill="none" fill-opacity="0">
        <rect x="0" y="0" width="1000" height="1000"></rect>
    </g>
    <g stroke="none" fill="none" fill-opacity="0">
        <rect x="0" y="0" width="1000" height="1000"></rect>
    </g>
    <g stroke="none" fill="none" fill-opacity="0">
        <rect x="0" y="0" width="1000" height="1000"></rect>
    </g>
    <g stroke="none" fill="none" fill-opacity="0">
        <rect x="0" y="0" width="1000" height="1000"></rect>
    </g>
    <g stroke="none" fill="none" fill-opacity="0">
        <rect x="0" y="0" width="1000" height="1000"></rect>
    </g>
    <g stroke="none" fill="none" fill-opacity="0">
        <rect x="0" y="0" width="1000" height="1000"></rect>
    </g>
    <g stroke="none" fill="none" fill-opacity="0">
        <rect x="0" y="0" width="1000" height="1000"></rect>
    </g>
    <g stroke="none" fill="none" fill-opacity="0">
        <rect x="0" y="0" width="1000" height="1000"></rect>
    </g>
    <g stroke="none" fill="none" fill-opacity="0">
        <rect x="0" y="0" width="1000" height="1000"></rect>
    </g>
    <g stroke="none" fill="none" fill-opacity="0">
        <rect x="0" y="0" width="1000" height="1000"></rect>
    </g>
    <g stroke="none" fill="none" fill-opacity="0">
        <rect x="0" y="0" width="1000" height="1000"></rect>
    </g>
    <g stroke="none" fill="none" fill-opacity="0">
        <rect x="0" y="0" width="1000" height="1000"></rect>
    </g>
    <g stroke="none" fill="none" fill-opacity="0">
        <rect x="0" y="0" width="1000" height="1000"></rect>
    </g>
    <g stroke="none" fill="none" fill-opacity="0">
        <rect x="0" y="0" width="1000" height="1000"></rect>
    </g>
    <g stroke="none" fill="none" fill-opacity="0">
        <rect x="0" y="0" width="1000" height="1000"></rect>
    </g>
    <g stroke="none" fill="none" fill-opacity="0">
        <rect x="0" y="0" width="1000" height="1000"></rect>
    </g>
    <g stroke="none" fill="none" fill-opacity="0">
        <rect x="0" y="0" width="1000" height="1000"></rect>
    </g>
    <g stroke="none" fill="none" fill-opacity="0">
        <rect x="0" y="0" width="1000" height="1000"></rect>
    </g>
</svg>